<svg width="234" height="222" viewBox="0 0 234 222" fill="none" xmlns="http://www.w3.org/2000/svg">
<g filter="url(#filter0_i_7230_54653)">
<path d="M127.652 96.9333L128.239 96.9558C130.842 97.0825 133.351 97.5382 135.664 98.364L131.529 111.81V111.811L130.646 114.699L130.628 114.76L130.617 114.824C130.561 115.155 130.391 115.454 130.118 115.721L130.099 115.741L130.08 115.761L127.546 118.536L127.373 118.706L127.354 118.725L127.335 118.746L125.668 120.574L125.661 120.583L125.529 120.729C126.554 118.14 127.38 115.449 127.973 112.699L130.616 101.358L130.816 100.498L129.988 100.193L128.431 99.6189L126.666 98.9451L126.658 98.9421L126.649 98.9392L122.299 97.365C123.491 97.1365 124.703 96.9829 125.938 96.9333H127.652Z" fill="#25A1B1" stroke="#25A1B1" stroke-width="2"/>
<path d="M115.939 92.166C116.617 91.945 117.279 91.9444 117.956 92.165L121.171 93.3135L121.183 93.3174L123.652 94.1631C121.403 94.3526 119.23 94.8146 117.203 95.4805L116.667 95.6631L116.657 95.667L103.913 100.287L103.072 100.592L103.282 101.461L104.159 105.102L104.549 107.009L104.55 107.018L104.552 107.025L104.804 108.164C104.802 108.163 104.801 108.162 104.8 108.16L104.779 108.138L104.759 108.117L104.514 107.864C104.433 107.777 104.353 107.686 104.266 107.588C104.107 107.41 103.926 107.208 103.72 107.002C101.475 104.457 99.6273 101.528 98.3135 98.2871L100.84 97.4609L100.851 97.457L100.861 97.4541L112.33 93.4102L115.939 92.166Z" fill="#25A1B1" stroke="#25A1B1" stroke-width="2"/>
<path d="M101.8 110.027C102.026 110.304 102.26 110.578 102.53 110.848C103.752 112.247 105.164 113.532 106.55 114.698L106.557 114.704L106.562 114.709L116.268 122.601L116.895 123.111L117.524 122.605L119.681 120.872L121.736 119.24L121.743 119.234L121.751 119.227L122.955 118.23C121.513 122.594 119.477 126.666 116.89 130.366C116.771 130.237 116.64 130.096 116.5 129.942C115.775 129.145 114.782 128.04 113.661 126.789C111.419 124.287 108.677 121.209 106.567 118.849H106.566C106.311 118.55 106.059 118.276 105.834 118.032C105.598 117.776 105.398 117.557 105.225 117.344L105.214 117.331L105.202 117.318L104.389 116.386C104.132 116.097 103.893 115.836 103.679 115.626C103.479 115.43 103.366 115.125 103.14 114.567L102.763 113.268L102.76 113.26L102.758 113.252L102.076 111.055L101.889 110.317L101.883 110.293L101.875 110.268L101.8 110.027Z" fill="#25A1B1" stroke="#25A1B1" stroke-width="2"/>
</g>
<g filter="url(#filter1_i_7230_54653)">
<path d="M221.608 133.491C217.04 133.491 213.022 135.901 210.922 139.457C209.658 141.598 207.642 143.516 205.156 143.516H195.831C194.552 143.516 193.322 143.026 192.393 142.146L181.808 132.12C180.879 131.24 179.649 130.75 178.37 130.75H170.889C168.128 130.75 165.889 128.511 165.889 125.75V117.499C165.889 114.738 168.128 112.499 170.889 112.499H189.204C191.625 112.499 193.597 114.354 195.021 116.312C196.851 118.827 199.923 120.468 203.427 120.468C209.035 120.468 213.648 116.098 213.648 110.786C213.648 105.474 209.035 101.104 203.427 101.104C199.948 101.104 196.866 102.78 195.019 105.342C193.624 107.277 191.67 109.072 189.285 109.072H170.889C168.128 109.072 165.889 106.834 165.889 104.072V95.6507C165.889 92.8893 168.128 90.6507 170.889 90.6507H178.37C179.649 90.6507 180.879 90.1604 181.808 89.2807L192.393 79.2542C193.322 78.3745 194.552 77.8842 195.831 77.8842H205.224C207.68 77.8842 209.681 79.7537 210.92 81.8746C213.021 85.4683 217.011 87.9089 221.608 87.9089C228.392 87.9089 233.91 82.6824 233.91 76.2563C233.91 69.8302 228.392 64.6036 221.608 64.6036C217.04 64.6036 213.022 67.0134 210.922 70.5697C209.658 72.7107 207.642 74.6283 205.156 74.6283H194.294C193.014 74.6283 191.784 75.1186 190.855 75.9984L180.27 86.0248C179.342 86.9045 178.111 87.3948 176.832 87.3948H170.889C168.128 87.3948 165.889 85.1562 165.889 82.3948V69.1535C165.889 67.7805 166.454 66.4678 167.451 65.5236L181.835 51.8981C183.299 50.5118 185.445 50.2634 187.448 50.488C187.824 50.5301 188.206 50.5519 188.593 50.5519C194.201 50.5519 198.814 46.1822 198.814 40.8699C198.814 35.5577 194.201 31.188 188.593 31.188C182.985 31.188 178.372 35.5577 178.372 40.8699C178.372 41.6177 178.464 42.3511 178.639 43.0572C179.328 45.8409 179.516 49.2109 177.434 51.183L164.622 63.3193C163.693 64.199 162.463 64.6893 161.184 64.6893H146.467C143.706 64.6893 141.467 62.4507 141.467 59.6893V54.3406C141.467 52.9617 142.037 51.6441 143.041 50.6992L153.462 40.894C154.466 39.9491 155.035 38.6315 155.035 37.2526V27.4675C155.035 24.9805 156.935 22.9645 159.147 21.8288C162.996 19.8534 165.618 16.0453 165.618 11.6526C165.618 5.22656 160.101 0 153.317 0C146.533 0 141.015 5.22656 141.015 11.6526C141.015 16.0211 143.608 19.8597 147.422 21.8322C149.655 22.987 151.598 25.0158 151.598 27.5296V35.8059C151.598 37.179 151.033 38.4916 150.037 39.4359L139.682 49.2441C138.685 50.1884 138.121 51.501 138.121 52.8741V59.6036C138.121 62.365 135.882 64.6036 133.121 64.6036H123.854C121.093 64.6036 118.854 62.365 118.854 59.6036V42.6452C118.854 40.1903 120.742 38.2075 122.809 36.8826C125.504 35.155 127.266 32.2235 127.266 28.8746C127.266 23.5623 122.653 19.1926 117.045 19.1926C111.437 19.1926 106.824 23.5623 106.824 28.8746C106.824 32.1952 108.621 35.1329 111.359 36.8784C113.402 38.1802 115.236 40.1487 115.236 42.5708V59.6036C115.236 62.365 112.998 64.6036 110.236 64.6036H100.789C98.0275 64.6036 95.789 62.365 95.789 59.6036V52.8741C95.789 51.501 95.2243 50.1884 94.2275 49.2441L83.8731 39.4359C82.8762 38.4916 82.3116 37.179 82.3116 35.8059V27.4675C82.3116 24.9805 84.2111 22.9645 86.4237 21.8288C90.2724 19.8534 92.8945 16.0453 92.8945 11.6526C92.8945 5.22656 87.3769 0 80.593 0C73.8091 0 68.2915 5.22656 68.2915 11.6526C68.2915 16.0211 70.8848 19.8597 74.6988 21.8322C76.9317 22.987 78.8744 25.0158 78.8744 27.5296V37.2625C78.8744 38.6356 79.439 39.9482 80.4359 40.8925L90.7903 50.7007C91.7871 51.645 92.3518 52.9576 92.3518 54.3307V59.6893C92.3518 62.4507 90.1132 64.6893 87.3518 64.6893H72.6354C71.3562 64.6893 70.1256 64.199 69.1969 63.3193L56.3849 51.183C54.3029 49.2109 54.4913 45.8409 55.1805 43.0572C55.3554 42.3511 55.4472 41.6177 55.4472 40.8699C55.4472 35.5577 50.8342 31.188 45.2261 31.188C39.6181 31.188 35.005 35.5577 35.005 40.8699C35.005 46.1822 39.6181 50.5519 45.2261 50.5519C45.5783 50.5519 45.9304 50.5339 46.2793 50.499C48.3325 50.2935 50.5549 50.5444 52.053 51.9634L66.5491 65.6949C67.5459 66.6392 68.1106 67.9518 68.1106 69.3249V82.3948C68.1106 85.1562 65.872 87.3948 63.1106 87.3948H57.0776C55.7984 87.3948 54.5678 86.9045 53.6391 86.0248L43.0544 75.9984C42.1257 75.1186 40.8951 74.6283 39.6159 74.6283H28.6859C26.2293 74.6283 24.229 72.7588 22.9893 70.638C20.8888 67.0442 16.8983 64.6036 12.3015 64.6036C5.51759 64.6036 0 69.8302 0 76.2563C0 82.6824 5.51759 87.9089 12.3015 87.9089C16.8691 87.9089 20.888 85.4992 22.9877 81.9428C24.2516 79.8019 26.2677 77.8842 28.7539 77.8842H38.0782C39.3574 77.8842 40.588 78.3745 41.5167 79.2542L52.1014 89.2807C53.0301 90.1604 54.2607 90.6507 55.5399 90.6507H63.1106C65.872 90.6507 68.1106 92.8893 68.1106 95.6507V103.901C68.1106 106.662 65.872 108.901 63.1106 108.901H44.7964C42.3753 108.901 40.4032 107.046 38.9788 105.088C37.1491 102.573 34.0775 100.932 30.5729 100.932C24.9648 100.932 20.3518 105.302 20.3518 110.614C20.3518 115.927 24.9648 120.296 30.5729 120.296C34.0525 120.296 37.1338 118.62 38.9813 116.058C40.3763 114.124 42.3305 112.328 44.7154 112.328H63.1106C65.872 112.328 68.1106 114.567 68.1106 117.328V125.75C68.1106 128.511 65.872 130.75 63.1106 130.75H55.5399C54.2607 130.75 53.0301 131.24 52.1014 132.12L41.5167 142.146C40.588 143.026 39.3574 143.516 38.0782 143.516H28.6859C26.2294 143.516 24.229 141.646 22.9893 139.526C20.8888 135.932 16.8983 133.491 12.3015 133.491C5.51759 133.491 0 138.718 0 145.144C0 151.57 5.51759 156.797 12.3015 156.797C16.8691 156.797 20.888 154.387 22.9877 150.83C24.2516 148.69 26.2677 146.772 28.7539 146.772H39.6159C40.8951 146.772 42.1257 146.282 43.0544 145.402L53.6391 135.375C54.5678 134.496 55.7984 134.005 57.0776 134.005H63.1106C65.872 134.005 68.1106 136.244 68.1106 139.005V153.018C68.1106 154.391 67.5459 155.704 66.5491 156.648L52.3458 170.102C50.8823 171.488 48.7364 171.737 46.7331 171.512C46.3571 171.47 45.9754 171.448 45.5879 171.448C39.9799 171.448 35.3668 175.818 35.3668 181.13C35.3668 186.442 39.9799 190.812 45.5879 190.812C51.196 190.812 55.8091 186.442 55.8091 181.13C55.8091 180.382 55.7172 179.649 55.5424 178.943C54.8531 176.159 54.6647 172.789 56.7467 170.817L69.5587 158.681C70.4874 157.801 71.718 157.311 72.9972 157.311H87.7136C90.475 157.311 92.7136 159.549 92.7136 162.311V167.65C92.7136 169.034 92.1394 170.357 91.1279 171.302L80.641 181.104C79.6295 182.05 79.0553 183.373 79.0553 184.757V194.532C79.0553 197.019 77.1558 199.036 74.9432 200.171C71.0944 202.147 68.4724 205.955 68.4724 210.347C68.4724 216.773 73.99 222 80.7739 222C87.5578 222 93.0754 216.773 93.0754 210.347C93.0754 205.979 90.4821 202.14 86.668 200.168C84.4352 199.013 82.4925 196.984 82.4925 194.47V186.194C82.4925 184.821 83.0571 183.508 84.054 182.564L94.4084 172.756C95.4052 171.812 95.9698 170.499 95.9698 169.126V162.396C95.9698 159.635 98.2084 157.396 100.97 157.396H110.236C112.998 157.396 115.236 159.635 115.236 162.396V179.355C115.236 181.81 113.348 183.793 111.281 185.117C108.587 186.845 106.824 189.777 106.824 193.125C106.824 198.438 111.437 202.807 117.045 202.807C122.653 202.807 127.266 198.438 127.266 193.125C127.266 189.805 125.47 186.867 122.731 185.122C120.689 183.82 118.854 181.851 118.854 179.429V162.396C118.854 159.635 121.093 157.396 123.854 157.396H133.302C136.063 157.396 138.302 159.635 138.302 162.396V169.126C138.302 170.499 138.866 171.812 139.863 172.756L150.217 182.564C151.214 183.508 151.779 184.821 151.779 186.194V194.532C151.779 197.019 149.879 199.036 147.667 200.171C143.818 202.147 141.196 205.955 141.196 210.347C141.196 216.773 146.714 222 153.497 222C160.281 222 165.799 216.773 165.799 210.347C165.799 205.979 163.206 202.14 159.392 200.168C157.159 199.013 155.216 196.984 155.216 194.47V184.737C155.216 183.364 154.651 182.052 153.655 181.108L143.3 171.299C142.303 170.355 141.739 169.042 141.739 167.669V162.311C141.739 159.549 143.977 157.311 146.739 157.311H161.455C162.734 157.311 163.965 157.801 164.894 158.681L178.862 171.913C180.453 173.42 180.708 175.789 180.562 177.976C180.549 178.169 180.543 178.363 180.543 178.56C180.543 183.872 185.156 188.242 190.764 188.242C196.372 188.242 200.985 183.872 200.985 178.56C200.985 173.247 196.372 168.878 190.764 168.878C189.732 168.878 188.726 169.026 187.777 169.305C185.232 170.051 182.2 170.198 180.271 168.379L167.46 156.306C166.458 155.362 165.889 154.045 165.889 152.668V139.091C165.889 136.33 168.128 134.091 170.889 134.091H176.922C178.202 134.091 179.432 134.581 180.361 135.461L190.946 145.488C191.874 146.367 193.105 146.858 194.384 146.858H205.314C207.771 146.858 209.771 148.727 211.011 150.848C213.111 154.442 217.102 156.882 221.699 156.882C228.482 156.882 234 151.656 234 145.23C234 138.804 228.392 133.491 221.608 133.491ZM203.337 104.445C207.045 104.445 210.03 107.273 210.03 110.786C210.03 114.299 207.045 117.126 203.337 117.126C199.628 117.126 196.643 114.299 196.643 110.786C196.643 107.273 199.628 104.445 203.337 104.445ZM221.608 67.9452C226.492 67.9452 230.382 71.7152 230.382 76.2563C230.382 80.8831 226.402 84.5673 221.608 84.5673C216.724 84.5673 212.834 80.7974 212.834 76.2563C212.834 71.6295 216.814 67.9452 221.608 67.9452ZM144.452 11.6526C144.452 7.02586 148.432 3.34157 153.226 3.34157C158.02 3.34157 162 7.11154 162 11.6526C162 16.2794 158.02 19.9637 153.226 19.9637C148.432 19.9637 144.452 16.1938 144.452 11.6526ZM110.261 28.9602C110.261 25.4473 113.246 22.6198 116.955 22.6198C120.663 22.6198 123.648 25.4473 123.648 28.9602C123.648 32.4732 120.663 35.3007 116.955 35.3007C113.246 35.3007 110.261 32.4732 110.261 28.9602ZM71.7286 11.6526C71.7286 7.02586 75.7086 3.34157 80.5025 3.34157C85.387 3.34157 89.2764 7.11154 89.2764 11.6526C89.2764 16.2794 85.2965 19.9637 80.5025 19.9637C75.7086 19.9637 71.7286 16.1938 71.7286 11.6526ZM12.2111 84.653C7.32664 84.653 3.43719 80.8831 3.43719 76.342C3.43719 71.7152 7.41709 68.0309 12.2111 68.0309C17.0955 68.0309 20.9849 71.8009 20.9849 76.342C20.9849 80.8831 17.005 84.653 12.2111 84.653ZM30.4824 117.041C26.7739 117.041 23.7889 114.213 23.7889 110.7C23.7889 107.187 26.7739 104.36 30.4824 104.36C34.191 104.36 37.1759 107.187 37.1759 110.7C37.0854 114.213 34.1005 117.041 30.4824 117.041ZM12.2111 153.541C7.32664 153.541 3.43719 149.771 3.43719 145.23C3.43719 140.603 7.41709 136.919 12.2111 136.919C17.0955 136.919 20.9849 140.689 20.9849 145.23C20.9849 149.771 17.005 153.541 12.2111 153.541ZM89.5478 210.347C89.5478 214.974 85.5678 218.658 80.7739 218.658C75.8894 218.658 72 214.888 72 210.347C72 205.806 75.9799 202.036 80.7739 202.036C85.6583 202.036 89.5478 205.806 89.5478 210.347ZM123.739 193.04C123.739 196.553 120.754 199.38 117.045 199.38C113.337 199.38 110.352 196.553 110.352 193.04C110.352 189.527 113.337 186.699 117.045 186.699C120.754 186.699 123.739 189.612 123.739 193.04ZM162.271 210.347C162.271 214.974 158.291 218.658 153.497 218.658C148.613 218.658 144.724 214.888 144.724 210.347C144.724 205.806 148.704 202.036 153.497 202.036C158.382 202.036 162.271 205.806 162.271 210.347ZM188.683 34.5295C192.392 34.5295 195.377 37.357 195.377 40.8699C195.377 44.3829 192.392 47.2104 188.683 47.2104C184.975 47.2104 181.99 44.3829 181.99 40.8699C181.99 37.357 184.975 34.5295 188.683 34.5295ZM38.4422 40.7843C38.4422 37.2713 41.4271 34.4438 45.1357 34.4438C48.8442 34.4438 51.8291 37.2713 51.8291 40.7843C51.8291 44.2972 48.8442 47.1247 45.1357 47.1247C41.4271 47.1247 38.4422 44.2972 38.4422 40.7843ZM45.407 187.47C41.6985 187.47 38.7136 184.643 38.7136 181.13C38.7136 177.617 41.6985 174.79 45.407 174.79C49.1156 174.79 52.1005 177.617 52.1005 181.13C52.1005 184.643 49.1156 187.47 45.407 187.47ZM162.271 148.969C162.271 151.731 160.033 153.969 157.271 153.969H76.5477C73.7863 153.969 71.5477 151.731 71.5477 148.969V73.0309C71.5477 70.2694 73.7863 68.0309 76.5477 68.0309H157.271C160.033 68.0309 162.271 70.2694 162.271 73.0309V148.969ZM190.854 172.391C194.563 172.391 197.548 175.218 197.548 178.731C197.548 182.244 194.563 185.071 190.854 185.071C187.146 185.071 184.161 182.244 184.161 178.731C184.161 175.218 187.146 172.391 190.854 172.391ZM221.608 153.455C216.724 153.455 212.834 149.685 212.834 145.144C212.834 140.517 216.814 136.833 221.608 136.833C226.492 136.833 230.382 140.603 230.382 145.144C230.382 149.685 226.492 153.455 221.608 153.455Z" fill="#25A1B1"/>
</g>
<defs>
<filter id="filter0_i_7230_54653" x="97" y="91" width="39.8965" height="44.9324" filterUnits="userSpaceOnUse" color-interpolation-filters="sRGB">
<feFlood flood-opacity="0" result="BackgroundImageFix"/>
<feBlend mode="normal" in="SourceGraphic" in2="BackgroundImageFix" result="shape"/>
<feColorMatrix in="SourceAlpha" type="matrix" values="0 0 0 0 0 0 0 0 0 0 0 0 0 0 0 0 0 0 127 0" result="hardAlpha"/>
<feOffset dy="4"/>
<feGaussianBlur stdDeviation="2"/>
<feComposite in2="hardAlpha" operator="arithmetic" k2="-1" k3="1"/>
<feColorMatrix type="matrix" values="0 0 0 0 0 0 0 0 0 0 0 0 0 0 0 0 0 0 0.25 0"/>
<feBlend mode="normal" in2="shape" result="effect1_innerShadow_7230_54653"/>
</filter>
<filter id="filter1_i_7230_54653" x="0" y="0" width="234" height="226" filterUnits="userSpaceOnUse" color-interpolation-filters="sRGB">
<feFlood flood-opacity="0" result="BackgroundImageFix"/>
<feBlend mode="normal" in="SourceGraphic" in2="BackgroundImageFix" result="shape"/>
<feColorMatrix in="SourceAlpha" type="matrix" values="0 0 0 0 0 0 0 0 0 0 0 0 0 0 0 0 0 0 127 0" result="hardAlpha"/>
<feOffset dy="4"/>
<feGaussianBlur stdDeviation="2"/>
<feComposite in2="hardAlpha" operator="arithmetic" k2="-1" k3="1"/>
<feColorMatrix type="matrix" values="0 0 0 0 0 0 0 0 0 0 0 0 0 0 0 0 0 0 0.25 0"/>
<feBlend mode="normal" in2="shape" result="effect1_innerShadow_7230_54653"/>
</filter>
</defs>
</svg>
