<svg width="340" height="259" viewBox="0 0 340 259" fill="none" xmlns="http://www.w3.org/2000/svg">
<mask id="mask0_3962_257021" style="mask-type:alpha" maskUnits="userSpaceOnUse" x="0" y="0" width="340" height="259">
<path d="M0 0H326C333.732 0 340 6.26801 340 14V259H0V0Z" fill="#25273B"/>
</mask>
<g mask="url(#mask0_3962_257021)">
<g opacity="0.7">
<rect x="77.1523" y="78" width="17.5039" height="17.5039" rx="3" fill="#303949"/>
<rect x="77.1523" y="78" width="17.5039" height="17.5039" rx="3" fill="url(#paint0_linear_3962_257021)"/>
<rect x="77.1523" y="78" width="17.5039" height="17.5039" rx="3" stroke="#303349" stroke-width="2"/>
</g>
<g opacity="0.2">
<rect x="77.1523" y="99.5039" width="17.5039" height="17.5039" rx="3" fill="#303949"/>
<rect x="77.1523" y="99.5039" width="17.5039" height="17.5039" rx="3" fill="url(#paint1_linear_3962_257021)" fill-opacity="0.2"/>
<rect x="77.1523" y="99.5039" width="17.5039" height="17.5039" rx="3" stroke="#303349" stroke-width="2"/>
</g>
<g opacity="0.2">
<rect x="77.1523" y="121.008" width="17.5039" height="17.5039" rx="3" fill="#303949"/>
<rect x="77.1523" y="121.008" width="17.5039" height="17.5039" rx="3" fill="url(#paint2_linear_3962_257021)" fill-opacity="0.2"/>
<rect x="77.1523" y="121.008" width="17.5039" height="17.5039" rx="3" stroke="#303349" stroke-width="2"/>
</g>
<g opacity="0.2">
<rect x="77.1523" y="142.512" width="17.5039" height="17.5039" rx="3" fill="#303949"/>
<rect x="77.1523" y="142.512" width="17.5039" height="17.5039" rx="3" fill="url(#paint3_linear_3962_257021)" fill-opacity="0.2"/>
<rect x="77.1523" y="142.512" width="17.5039" height="17.5039" rx="3" stroke="#303349" stroke-width="2"/>
</g>
<g opacity="0.2">
<rect x="98.6562" y="78" width="17.5039" height="17.5039" rx="3" fill="#303949"/>
<rect x="98.6562" y="78" width="17.5039" height="17.5039" rx="3" fill="url(#paint4_linear_3962_257021)" fill-opacity="0.2"/>
<rect x="98.6562" y="78" width="17.5039" height="17.5039" rx="3" stroke="#303349" stroke-width="2"/>
</g>
<g opacity="0.2">
<rect x="98.6562" y="99.5039" width="17.5039" height="17.5039" rx="3" fill="#303949"/>
<rect x="98.6562" y="99.5039" width="17.5039" height="17.5039" rx="3" fill="url(#paint5_linear_3962_257021)" fill-opacity="0.2"/>
<rect x="98.6562" y="99.5039" width="17.5039" height="17.5039" rx="3" stroke="#303349" stroke-width="2"/>
</g>
<g opacity="0.2">
<rect x="98.6562" y="121.008" width="17.5039" height="17.5039" rx="3" fill="#303949"/>
<rect x="98.6562" y="121.008" width="17.5039" height="17.5039" rx="3" fill="url(#paint6_linear_3962_257021)" fill-opacity="0.2"/>
<rect x="98.6562" y="121.008" width="17.5039" height="17.5039" rx="3" stroke="#303349" stroke-width="2"/>
</g>
<g opacity="0.2">
<rect x="98.6562" y="142.512" width="17.5039" height="17.5039" rx="3" fill="#303949"/>
<rect x="98.6562" y="142.512" width="17.5039" height="17.5039" rx="3" fill="url(#paint7_linear_3962_257021)" fill-opacity="0.2"/>
<rect x="98.6562" y="142.512" width="17.5039" height="17.5039" rx="3" stroke="#303349" stroke-width="2"/>
</g>
<g opacity="0.2">
<rect x="164.152" y="70" width="17.5039" height="17.5039" rx="3" fill="#303949"/>
<rect x="164.152" y="70" width="17.5039" height="17.5039" rx="3" fill="url(#paint8_linear_3962_257021)" fill-opacity="0.2"/>
<rect x="164.152" y="70" width="17.5039" height="17.5039" rx="3" stroke="#303349" stroke-width="2"/>
</g>
<g opacity="0.2">
<rect x="164.152" y="91.5039" width="17.5039" height="17.5039" rx="3" fill="#303949"/>
<rect x="164.152" y="91.5039" width="17.5039" height="17.5039" rx="3" fill="url(#paint9_linear_3962_257021)" fill-opacity="0.2"/>
<rect x="164.152" y="91.5039" width="17.5039" height="17.5039" rx="3" stroke="#303349" stroke-width="2"/>
</g>
<g opacity="0.2">
<rect x="164.152" y="113.008" width="17.5039" height="17.5039" rx="3" fill="#303949"/>
<rect x="164.152" y="113.008" width="17.5039" height="17.5039" rx="3" fill="url(#paint10_linear_3962_257021)" fill-opacity="0.2"/>
<rect x="164.152" y="113.008" width="17.5039" height="17.5039" rx="3" stroke="#303349" stroke-width="2"/>
</g>
<g opacity="0.2">
<rect x="164.152" y="134.512" width="17.5039" height="17.5039" rx="3" fill="#303949"/>
<rect x="164.152" y="134.512" width="17.5039" height="17.5039" rx="3" fill="url(#paint11_linear_3962_257021)" fill-opacity="0.2"/>
<rect x="164.152" y="134.512" width="17.5039" height="17.5039" rx="3" stroke="#303349" stroke-width="2"/>
</g>
<g opacity="0.2">
<rect x="185.656" y="70" width="17.5039" height="17.5039" rx="3" fill="#303949"/>
<rect x="185.656" y="70" width="17.5039" height="17.5039" rx="3" fill="url(#paint12_linear_3962_257021)" fill-opacity="0.2"/>
<rect x="185.656" y="70" width="17.5039" height="17.5039" rx="3" stroke="#303349" stroke-width="2"/>
</g>
<g opacity="0.2">
<rect x="185.656" y="91.5039" width="17.5039" height="17.5039" rx="3" fill="#303949"/>
<rect x="185.656" y="91.5039" width="17.5039" height="17.5039" rx="3" fill="url(#paint13_linear_3962_257021)" fill-opacity="0.2"/>
<rect x="185.656" y="91.5039" width="17.5039" height="17.5039" rx="3" stroke="#303349" stroke-width="2"/>
</g>
<g opacity="0.2">
<rect x="185.656" y="113.008" width="17.5039" height="17.5039" rx="3" fill="#303949"/>
<rect x="185.656" y="113.008" width="17.5039" height="17.5039" rx="3" fill="url(#paint14_linear_3962_257021)" fill-opacity="0.2"/>
<rect x="185.656" y="113.008" width="17.5039" height="17.5039" rx="3" stroke="#303349" stroke-width="2"/>
</g>
<g opacity="0.2">
<rect x="185.656" y="134.512" width="17.5039" height="17.5039" rx="3" fill="#303949"/>
<rect x="185.656" y="134.512" width="17.5039" height="17.5039" rx="3" fill="url(#paint15_linear_3962_257021)" fill-opacity="0.2"/>
<rect x="185.656" y="134.512" width="17.5039" height="17.5039" rx="3" stroke="#303349" stroke-width="2"/>
</g>
<g opacity="0.2">
<rect x="120.16" y="70" width="17.5039" height="17.5039" rx="3" fill="#303949"/>
<rect x="120.16" y="70" width="17.5039" height="17.5039" rx="3" fill="url(#paint16_linear_3962_257021)" fill-opacity="0.2"/>
<rect x="120.16" y="70" width="17.5039" height="17.5039" rx="3" stroke="#303349" stroke-width="2"/>
</g>
<g opacity="0.2">
<rect x="120.16" y="91.5039" width="17.5039" height="17.5039" rx="3" fill="#303949"/>
<rect x="120.16" y="91.5039" width="17.5039" height="17.5039" rx="3" fill="url(#paint17_linear_3962_257021)" fill-opacity="0.2"/>
<rect x="120.16" y="91.5039" width="17.5039" height="17.5039" rx="3" stroke="#303349" stroke-width="2"/>
</g>
<g opacity="0.2">
<rect x="120.16" y="113.008" width="17.5039" height="17.5039" rx="3" fill="#303949"/>
<rect x="120.16" y="113.008" width="17.5039" height="17.5039" rx="3" fill="url(#paint18_linear_3962_257021)" fill-opacity="0.2"/>
<rect x="120.16" y="113.008" width="17.5039" height="17.5039" rx="3" stroke="#303349" stroke-width="2"/>
</g>
<g opacity="0.2">
<rect x="120.16" y="134.512" width="17.5039" height="17.5039" rx="3" fill="#303949"/>
<rect x="120.16" y="134.512" width="17.5039" height="17.5039" rx="3" fill="url(#paint19_linear_3962_257021)" fill-opacity="0.2"/>
<rect x="120.16" y="134.512" width="17.5039" height="17.5039" rx="3" stroke="#303349" stroke-width="2"/>
</g>
<g opacity="0.2">
<rect x="142.152" y="64" width="17.5039" height="17.5039" rx="3" fill="#303949"/>
<rect x="142.152" y="64" width="17.5039" height="17.5039" rx="3" fill="url(#paint20_linear_3962_257021)" fill-opacity="0.2"/>
<rect x="142.152" y="64" width="17.5039" height="17.5039" rx="3" stroke="#303349" stroke-width="2"/>
</g>
<g opacity="0.2">
<rect x="142.152" y="85.5039" width="17.5039" height="17.5039" rx="3" fill="#303949"/>
<rect x="142.152" y="85.5039" width="17.5039" height="17.5039" rx="3" fill="url(#paint21_linear_3962_257021)" fill-opacity="0.2"/>
<rect x="142.152" y="85.5039" width="17.5039" height="17.5039" rx="3" stroke="#303349" stroke-width="2"/>
</g>
<g opacity="0.2">
<rect x="142.152" y="107.008" width="17.5039" height="17.5039" rx="3" fill="#303949"/>
<rect x="142.152" y="107.008" width="17.5039" height="17.5039" rx="3" fill="url(#paint22_linear_3962_257021)" fill-opacity="0.2"/>
<rect x="142.152" y="107.008" width="17.5039" height="17.5039" rx="3" stroke="#303349" stroke-width="2"/>
</g>
<g opacity="0.2">
<rect x="142.152" y="128.512" width="17.5039" height="17.5039" rx="3" fill="#303949"/>
<rect x="142.152" y="128.512" width="17.5039" height="17.5039" rx="3" fill="url(#paint23_linear_3962_257021)" fill-opacity="0.2"/>
<rect x="142.152" y="128.512" width="17.5039" height="17.5039" rx="3" stroke="#303349" stroke-width="2"/>
</g>
<g opacity="0.2">
<rect x="207.152" y="80" width="17.5039" height="17.5039" rx="3" fill="#303949"/>
<rect x="207.152" y="80" width="17.5039" height="17.5039" rx="3" fill="url(#paint24_linear_3962_257021)" fill-opacity="0.2"/>
<rect x="207.152" y="80" width="17.5039" height="17.5039" rx="3" stroke="#303349" stroke-width="2"/>
</g>
<g opacity="0.2">
<rect x="207.152" y="101.504" width="17.5039" height="17.5039" rx="3" fill="#303949"/>
<rect x="207.152" y="101.504" width="17.5039" height="17.5039" rx="3" fill="url(#paint25_linear_3962_257021)" fill-opacity="0.2"/>
<rect x="207.152" y="101.504" width="17.5039" height="17.5039" rx="3" stroke="#303349" stroke-width="2"/>
</g>
<g opacity="0.2">
<rect x="207.152" y="123.008" width="17.5039" height="17.5039" rx="3" fill="#303949"/>
<rect x="207.152" y="123.008" width="17.5039" height="17.5039" rx="3" fill="url(#paint26_linear_3962_257021)" fill-opacity="0.2"/>
<rect x="207.152" y="123.008" width="17.5039" height="17.5039" rx="3" stroke="#303349" stroke-width="2"/>
</g>
<g opacity="0.2">
<path d="M173.177 157.595L194.668 158.193C194.885 158.199 195.043 158.402 194.995 158.614L191.576 173.714C191.539 173.879 191.386 173.993 191.217 173.981L174.117 172.839C173.583 172.803 173.168 172.36 173.168 171.824L173.168 157.603C173.168 157.601 173.168 157.601 173.168 157.6L173.168 157.6L173.168 157.6C173.168 157.6 173.169 157.599 173.171 157.597C173.172 157.596 173.173 157.595 173.174 157.595L173.174 157.595L173.174 157.595C173.174 157.595 173.175 157.595 173.177 157.595Z" fill="#303949"/>
<path d="M173.177 157.595L194.668 158.193C194.885 158.199 195.043 158.402 194.995 158.614L191.576 173.714C191.539 173.879 191.386 173.993 191.217 173.981L174.117 172.839C173.583 172.803 173.168 172.36 173.168 171.824L173.168 157.603C173.168 157.601 173.168 157.601 173.168 157.6L173.168 157.6L173.168 157.6C173.168 157.6 173.169 157.599 173.171 157.597C173.172 157.596 173.173 157.595 173.174 157.595L173.174 157.595L173.174 157.595C173.174 157.595 173.175 157.595 173.177 157.595Z" fill="url(#paint27_linear_3962_257021)" fill-opacity="0.2"/>
<path d="M173.177 157.595L194.668 158.193C194.885 158.199 195.043 158.402 194.995 158.614L191.576 173.714C191.539 173.879 191.386 173.993 191.217 173.981L174.117 172.839C173.583 172.803 173.168 172.36 173.168 171.824L173.168 157.603C173.168 157.601 173.168 157.601 173.168 157.6L173.168 157.6L173.168 157.6C173.168 157.6 173.169 157.599 173.171 157.597C173.172 157.596 173.173 157.595 173.174 157.595L173.174 157.595L173.174 157.595C173.174 157.595 173.175 157.595 173.177 157.595Z" stroke="#303349" stroke-width="2"/>
<path d="M143.262 157.566L167.762 157.566C167.953 157.566 168.107 157.721 168.107 157.911L168.107 172.366C168.107 172.557 167.953 172.711 167.762 172.711L144.271 172.711C143.709 172.711 143.254 172.256 143.254 171.694L143.254 157.575C143.254 157.573 143.254 157.572 143.254 157.572L143.254 157.572C143.254 157.572 143.255 157.57 143.256 157.569C143.258 157.567 143.259 157.567 143.259 157.567L143.26 157.567L143.26 157.567C143.26 157.567 143.261 157.566 143.262 157.566Z" fill="#303949"/>
<path d="M143.262 157.566L167.762 157.566C167.953 157.566 168.107 157.721 168.107 157.911L168.107 172.366C168.107 172.557 167.953 172.711 167.762 172.711L144.271 172.711C143.709 172.711 143.254 172.256 143.254 171.694L143.254 157.575C143.254 157.573 143.254 157.572 143.254 157.572L143.254 157.572C143.254 157.572 143.255 157.57 143.256 157.569C143.258 157.567 143.259 157.567 143.259 157.567L143.26 157.567L143.26 157.567C143.26 157.567 143.261 157.566 143.262 157.566Z" fill="url(#paint28_linear_3962_257021)" fill-opacity="0.2"/>
<path d="M143.262 157.566L167.762 157.566C167.953 157.566 168.107 157.721 168.107 157.911L168.107 172.366C168.107 172.557 167.953 172.711 167.762 172.711L144.271 172.711C143.709 172.711 143.254 172.256 143.254 171.694L143.254 157.575C143.254 157.573 143.254 157.572 143.254 157.572L143.254 157.572C143.254 157.572 143.255 157.57 143.256 157.569C143.258 157.567 143.259 157.567 143.259 157.567L143.26 157.567L143.26 157.567C143.26 157.567 143.261 157.566 143.262 157.566Z" stroke="#303349" stroke-width="2"/>
<path d="M143.131 178.072L167.756 178.072C167.947 178.072 168.101 178.227 168.101 178.417L168.101 194.217C168.101 194.407 167.947 194.562 167.756 194.562L151.591 194.562C151.199 194.562 150.841 194.336 150.673 193.981L143.123 178.084C143.122 178.083 143.122 178.081 143.121 178.081C143.122 178.08 143.122 178.078 143.123 178.076C143.125 178.074 143.126 178.073 143.126 178.072C143.127 178.072 143.129 178.072 143.131 178.072Z" fill="#303949"/>
<path d="M143.131 178.072L167.756 178.072C167.947 178.072 168.101 178.227 168.101 178.417L168.101 194.217C168.101 194.407 167.947 194.562 167.756 194.562L151.591 194.562C151.199 194.562 150.841 194.336 150.673 193.981L143.123 178.084C143.122 178.083 143.122 178.081 143.121 178.081C143.122 178.08 143.122 178.078 143.123 178.076C143.125 178.074 143.126 178.073 143.126 178.072C143.127 178.072 143.129 178.072 143.131 178.072Z" fill="url(#paint29_linear_3962_257021)" fill-opacity="0.2"/>
<path d="M143.131 178.072L167.756 178.072C167.947 178.072 168.101 178.227 168.101 178.417L168.101 194.217C168.101 194.407 167.947 194.562 167.756 194.562L151.591 194.562C151.199 194.562 150.841 194.336 150.673 193.981L143.123 178.084C143.122 178.083 143.122 178.081 143.121 178.081C143.122 178.08 143.122 178.078 143.123 178.076C143.125 178.074 143.126 178.073 143.126 178.072C143.127 178.072 143.129 178.072 143.131 178.072Z" stroke="#303349" stroke-width="2"/>
<path d="M239.471 188.3C240.064 187.896 240.877 188.223 241.025 188.925L243.231 199.364C244.099 203.471 242.331 207.687 238.793 209.947L221.751 220.835C221.323 221.108 220.778 221.117 220.342 220.859L205.88 212.301C205.456 212.05 205.437 211.443 205.845 211.166L239.471 188.3Z" fill="#303949"/>
<path d="M239.471 188.3C240.064 187.896 240.877 188.223 241.025 188.925L243.231 199.364C244.099 203.471 242.331 207.687 238.793 209.947L221.751 220.835C221.323 221.108 220.778 221.117 220.342 220.859L205.88 212.301C205.456 212.05 205.437 211.443 205.845 211.166L239.471 188.3Z" fill="url(#paint30_linear_3962_257021)" fill-opacity="0.2"/>
<path d="M239.471 188.3C240.064 187.896 240.877 188.223 241.025 188.925L243.231 199.364C244.099 203.471 242.331 207.687 238.793 209.947L221.751 220.835C221.323 221.108 220.778 221.117 220.342 220.859L205.88 212.301C205.456 212.05 205.437 211.443 205.845 211.166L239.471 188.3Z" stroke="#303349" stroke-width="2"/>
<path d="M220.14 166.564L208.968 181.894C208.856 182.049 208.626 182.092 208.455 181.97C207.057 180.972 204.54 179.238 202.504 178.199C200.537 177.194 197.965 176.146 196.303 175.497C195.795 175.299 195.524 174.756 195.659 174.249L199.784 158.848C199.785 158.847 199.785 158.846 199.785 158.846C201.949 159.376 207.26 160.726 210.806 162.023C213.808 163.122 217.883 165.037 220.023 166.071C220.202 166.158 220.268 166.388 220.14 166.564Z" fill="#303949"/>
<path d="M220.14 166.564L208.968 181.894C208.856 182.049 208.626 182.092 208.455 181.97C207.057 180.972 204.54 179.238 202.504 178.199C200.537 177.194 197.965 176.146 196.303 175.497C195.795 175.299 195.524 174.756 195.659 174.249L199.784 158.848C199.785 158.847 199.785 158.846 199.785 158.846C201.949 159.376 207.26 160.726 210.806 162.023C213.808 163.122 217.883 165.037 220.023 166.071C220.202 166.158 220.268 166.388 220.14 166.564Z" fill="url(#paint31_linear_3962_257021)" fill-opacity="0.2"/>
<path d="M220.14 166.564L208.968 181.894C208.856 182.049 208.626 182.092 208.455 181.97C207.057 180.972 204.54 179.238 202.504 178.199C200.537 177.194 197.965 176.146 196.303 175.497C195.795 175.299 195.524 174.756 195.659 174.249L199.784 158.848C199.785 158.847 199.785 158.846 199.785 158.846C201.949 159.376 207.26 160.726 210.806 162.023C213.808 163.122 217.883 165.037 220.023 166.071C220.202 166.158 220.268 166.388 220.14 166.564Z" stroke="#303349" stroke-width="2"/>
<path d="M171.832 178.134C171.832 177.557 172.316 177.097 172.892 177.127L196.086 178.318C197.02 178.366 197.621 179.33 197.253 180.191L190.33 196.343C190.1 196.879 189.551 197.206 188.97 197.152L173.663 195.732C172.625 195.635 171.832 194.765 171.832 193.723L171.832 178.134Z" fill="#303949"/>
<path d="M171.832 178.134C171.832 177.557 172.316 177.097 172.892 177.127L196.086 178.318C197.02 178.366 197.621 179.33 197.253 180.191L190.33 196.343C190.1 196.879 189.551 197.206 188.97 197.152L173.663 195.732C172.625 195.635 171.832 194.765 171.832 193.723L171.832 178.134Z" fill="url(#paint32_linear_3962_257021)" fill-opacity="0.2"/>
<path d="M171.832 178.134C171.832 177.557 172.316 177.097 172.892 177.127L196.086 178.318C197.02 178.366 197.621 179.33 197.253 180.191L190.33 196.343C190.1 196.879 189.551 197.206 188.97 197.152L173.663 195.732C172.625 195.635 171.832 194.765 171.832 193.723L171.832 178.134Z" stroke="#303349" stroke-width="2"/>
<path d="M219.541 197.763L204.389 208.342C204.23 208.453 203.996 208.418 203.875 208.241C202.9 206.823 201.137 204.348 199.587 202.683C198.001 200.98 195.802 199.002 194.473 197.838C194.112 197.522 194.009 197.01 194.211 196.592L201.444 181.634C201.444 181.633 201.444 181.633 201.444 181.633C203.374 182.897 207.736 185.817 210.523 188.161C213.703 190.837 217.746 195.213 219.603 197.274C219.73 197.416 219.711 197.644 219.541 197.763Z" fill="#303949"/>
<path d="M219.541 197.763L204.389 208.342C204.23 208.453 203.996 208.418 203.875 208.241C202.9 206.823 201.137 204.348 199.587 202.683C198.001 200.98 195.802 199.002 194.473 197.838C194.112 197.522 194.009 197.01 194.211 196.592L201.444 181.634C201.444 181.633 201.444 181.633 201.444 181.633C203.374 182.897 207.736 185.817 210.523 188.161C213.703 190.837 217.746 195.213 219.603 197.274C219.73 197.416 219.711 197.644 219.541 197.763Z" fill="url(#paint33_linear_3962_257021)" fill-opacity="0.2"/>
<path d="M219.541 197.763L204.389 208.342C204.23 208.453 203.996 208.418 203.875 208.241C202.9 206.823 201.137 204.348 199.587 202.683C198.001 200.98 195.802 199.002 194.473 197.838C194.112 197.522 194.009 197.01 194.211 196.592L201.444 181.634C201.444 181.633 201.444 181.633 201.444 181.633C203.374 182.897 207.736 185.817 210.523 188.161C213.703 190.837 217.746 195.213 219.603 197.274C219.73 197.416 219.711 197.644 219.541 197.763Z" stroke="#303349" stroke-width="2"/>
<path d="M237.351 185.232L222.344 195.035C222.186 195.139 221.958 195.1 221.84 194.928C220.87 193.514 219.09 191.012 217.528 189.334C216.056 187.754 214.057 185.937 212.717 184.756C212.289 184.378 212.236 183.738 212.58 183.308L223.876 169.199C225.378 170.287 228.681 172.79 230.91 175.263C233.38 178.003 236.216 182.67 237.462 184.804C237.543 184.942 237.507 185.13 237.351 185.232Z" fill="#303949"/>
<path d="M237.351 185.232L222.344 195.035C222.186 195.139 221.958 195.1 221.84 194.928C220.87 193.514 219.09 191.012 217.528 189.334C216.056 187.754 214.057 185.937 212.717 184.756C212.289 184.378 212.236 183.738 212.58 183.308L223.876 169.199C225.378 170.287 228.681 172.79 230.91 175.263C233.38 178.003 236.216 182.67 237.462 184.804C237.543 184.942 237.507 185.13 237.351 185.232Z" fill="url(#paint34_linear_3962_257021)" fill-opacity="0.2"/>
<path d="M237.351 185.232L222.344 195.035C222.186 195.139 221.958 195.1 221.84 194.928C220.87 193.514 219.09 191.012 217.528 189.334C216.056 187.754 214.057 185.937 212.717 184.756C212.289 184.378 212.236 183.738 212.58 183.308L223.876 169.199C225.378 170.287 228.681 172.79 230.91 175.263C233.38 178.003 236.216 182.67 237.462 184.804C237.543 184.942 237.507 185.13 237.351 185.232Z" stroke="#303349" stroke-width="2"/>
</g>
<g opacity="0.2">
<rect x="296.77" y="78" width="17.5039" height="17.5039" rx="3" fill="#303949"/>
<rect x="296.77" y="78" width="17.5039" height="17.5039" rx="3" fill="url(#paint35_linear_3962_257021)" fill-opacity="0.2"/>
<rect x="296.77" y="78" width="17.5039" height="17.5039" rx="3" stroke="#303349" stroke-width="2"/>
</g>
<g opacity="0.2">
<rect x="296.77" y="99.5039" width="17.5039" height="17.5039" rx="3" fill="#303949"/>
<rect x="296.77" y="99.5039" width="17.5039" height="17.5039" rx="3" fill="url(#paint36_linear_3962_257021)" fill-opacity="0.2"/>
<rect x="296.77" y="99.5039" width="17.5039" height="17.5039" rx="3" stroke="#303349" stroke-width="2"/>
</g>
<g opacity="0.2">
<rect x="296.77" y="121.008" width="17.5039" height="17.5039" rx="3" fill="#303949"/>
<rect x="296.77" y="121.008" width="17.5039" height="17.5039" rx="3" fill="url(#paint37_linear_3962_257021)" fill-opacity="0.2"/>
<rect x="296.77" y="121.008" width="17.5039" height="17.5039" rx="3" stroke="#303349" stroke-width="2"/>
</g>
<g opacity="0.2">
<rect x="318.262" y="70" width="17.5039" height="17.5039" rx="3" fill="#303949"/>
<rect x="318.262" y="70" width="17.5039" height="17.5039" rx="3" fill="url(#paint38_linear_3962_257021)" fill-opacity="0.2"/>
<rect x="318.262" y="70" width="17.5039" height="17.5039" rx="3" stroke="#303349" stroke-width="2"/>
</g>
<g opacity="0.2">
<rect x="318.262" y="91.5039" width="17.5039" height="17.5039" rx="3" fill="#303949"/>
<rect x="318.262" y="91.5039" width="17.5039" height="17.5039" rx="3" fill="url(#paint39_linear_3962_257021)" fill-opacity="0.2"/>
<rect x="318.262" y="91.5039" width="17.5039" height="17.5039" rx="3" stroke="#303349" stroke-width="2"/>
</g>
<g opacity="0.2">
<rect x="318.262" y="113.008" width="17.5039" height="17.5039" rx="3" fill="#303949"/>
<rect x="318.262" y="113.008" width="17.5039" height="17.5039" rx="3" fill="url(#paint40_linear_3962_257021)" fill-opacity="0.2"/>
<rect x="318.262" y="113.008" width="17.5039" height="17.5039" rx="3" stroke="#303349" stroke-width="2"/>
</g>
<g opacity="0.2">
<rect x="318.262" y="134.512" width="17.5039" height="17.5039" rx="3" fill="#303949"/>
<rect x="318.262" y="134.512" width="17.5039" height="17.5039" rx="3" fill="url(#paint41_linear_3962_257021)" fill-opacity="0.2"/>
<rect x="318.262" y="134.512" width="17.5039" height="17.5039" rx="3" stroke="#303349" stroke-width="2"/>
</g>
<g opacity="0.2">
<rect x="339.77" y="70" width="17.5039" height="17.5039" rx="3" fill="#303949"/>
<rect x="339.77" y="70" width="17.5039" height="17.5039" rx="3" fill="url(#paint42_linear_3962_257021)" fill-opacity="0.2"/>
<rect x="339.77" y="70" width="17.5039" height="17.5039" rx="3" stroke="#303349" stroke-width="2"/>
</g>
<g opacity="0.2">
<rect x="339.77" y="91.5039" width="17.5039" height="17.5039" rx="3" fill="#303949"/>
<rect x="339.77" y="91.5039" width="17.5039" height="17.5039" rx="3" fill="url(#paint43_linear_3962_257021)" fill-opacity="0.2"/>
<rect x="339.77" y="91.5039" width="17.5039" height="17.5039" rx="3" stroke="#303349" stroke-width="2"/>
</g>
<g opacity="0.2">
<rect x="339.77" y="113.008" width="17.5039" height="17.5039" rx="3" fill="#303949"/>
<rect x="339.77" y="113.008" width="17.5039" height="17.5039" rx="3" fill="url(#paint44_linear_3962_257021)" fill-opacity="0.2"/>
<rect x="339.77" y="113.008" width="17.5039" height="17.5039" rx="3" stroke="#303349" stroke-width="2"/>
</g>
<g opacity="0.2">
<rect x="339.77" y="134.512" width="17.5039" height="17.5039" rx="3" fill="#303949"/>
<rect x="339.77" y="134.512" width="17.5039" height="17.5039" rx="3" fill="url(#paint45_linear_3962_257021)" fill-opacity="0.2"/>
<rect x="339.77" y="134.512" width="17.5039" height="17.5039" rx="3" stroke="#303349" stroke-width="2"/>
</g>
<g opacity="0.2">
<path d="M349.745 157.595L328.253 158.193C328.036 158.199 327.879 158.402 327.927 158.614L331.346 173.714C331.383 173.879 331.536 173.993 331.705 173.981L348.805 172.839C349.339 172.803 349.754 172.36 349.754 171.824L349.754 157.603C349.754 157.601 349.754 157.601 349.754 157.6L349.754 157.6L349.754 157.6C349.754 157.6 349.753 157.599 349.751 157.597C349.75 157.596 349.748 157.595 349.748 157.595L349.748 157.595L349.748 157.595C349.748 157.595 349.747 157.595 349.745 157.595Z" fill="#303949"/>
<path d="M349.745 157.595L328.253 158.193C328.036 158.199 327.879 158.402 327.927 158.614L331.346 173.714C331.383 173.879 331.536 173.993 331.705 173.981L348.805 172.839C349.339 172.803 349.754 172.36 349.754 171.824L349.754 157.603C349.754 157.601 349.754 157.601 349.754 157.6L349.754 157.6L349.754 157.6C349.754 157.6 349.753 157.599 349.751 157.597C349.75 157.596 349.748 157.595 349.748 157.595L349.748 157.595L349.748 157.595C349.748 157.595 349.747 157.595 349.745 157.595Z" fill="url(#paint46_linear_3962_257021)" fill-opacity="0.2"/>
<path d="M349.745 157.595L328.253 158.193C328.036 158.199 327.879 158.402 327.927 158.614L331.346 173.714C331.383 173.879 331.536 173.993 331.705 173.981L348.805 172.839C349.339 172.803 349.754 172.36 349.754 171.824L349.754 157.603C349.754 157.601 349.754 157.601 349.754 157.6L349.754 157.6L349.754 157.6C349.754 157.6 349.753 157.599 349.751 157.597C349.75 157.596 349.748 157.595 349.748 157.595L349.748 157.595L349.748 157.595C349.748 157.595 349.747 157.595 349.745 157.595Z" stroke="#303349" stroke-width="2"/>
<path d="M283.451 188.3C282.858 187.896 282.045 188.223 281.897 188.925L279.691 199.364C278.823 203.471 280.591 207.687 284.129 209.947L301.171 220.835C301.599 221.108 302.143 221.117 302.58 220.859L317.042 212.301C317.466 212.05 317.485 211.443 317.077 211.166L283.451 188.3Z" fill="#303949"/>
<path d="M283.451 188.3C282.858 187.896 282.045 188.223 281.897 188.925L279.691 199.364C278.823 203.471 280.591 207.687 284.129 209.947L301.171 220.835C301.599 221.108 302.143 221.117 302.58 220.859L317.042 212.301C317.466 212.05 317.485 211.443 317.077 211.166L283.451 188.3Z" fill="url(#paint47_linear_3962_257021)" fill-opacity="0.2"/>
<path d="M283.451 188.3C282.858 187.896 282.045 188.223 281.897 188.925L279.691 199.364C278.823 203.471 280.591 207.687 284.129 209.947L301.171 220.835C301.599 221.108 302.143 221.117 302.58 220.859L317.042 212.301C317.466 212.05 317.485 211.443 317.077 211.166L283.451 188.3Z" stroke="#303349" stroke-width="2"/>
<path d="M302.782 166.564L313.953 181.894C314.066 182.049 314.295 182.092 314.467 181.97C315.865 180.972 318.382 179.238 320.418 178.199C322.385 177.194 324.957 176.146 326.619 175.497C327.127 175.299 327.398 174.756 327.263 174.249L323.137 158.848C323.137 158.847 323.137 158.846 323.137 158.846C320.973 159.376 315.662 160.726 312.115 162.023C309.114 163.122 305.039 165.037 302.898 166.071C302.72 166.158 302.654 166.388 302.782 166.564Z" fill="#303949"/>
<path d="M302.782 166.564L313.953 181.894C314.066 182.049 314.295 182.092 314.467 181.97C315.865 180.972 318.382 179.238 320.418 178.199C322.385 177.194 324.957 176.146 326.619 175.497C327.127 175.299 327.398 174.756 327.263 174.249L323.137 158.848C323.137 158.847 323.137 158.846 323.137 158.846C320.973 159.376 315.662 160.726 312.115 162.023C309.114 163.122 305.039 165.037 302.898 166.071C302.72 166.158 302.654 166.388 302.782 166.564Z" fill="url(#paint48_linear_3962_257021)" fill-opacity="0.2"/>
<path d="M302.782 166.564L313.953 181.894C314.066 182.049 314.295 182.092 314.467 181.97C315.865 180.972 318.382 179.238 320.418 178.199C322.385 177.194 324.957 176.146 326.619 175.497C327.127 175.299 327.398 174.756 327.263 174.249L323.137 158.848C323.137 158.847 323.137 158.846 323.137 158.846C320.973 159.376 315.662 160.726 312.115 162.023C309.114 163.122 305.039 165.037 302.898 166.071C302.72 166.158 302.654 166.388 302.782 166.564Z" stroke="#303349" stroke-width="2"/>
<path d="M351.332 178.062C351.332 177.484 350.848 177.025 350.272 177.054L327.079 178.246C326.144 178.294 325.543 179.258 325.912 180.118L332.834 196.271C333.064 196.807 333.613 197.134 334.194 197.08L349.501 195.659C350.539 195.563 351.332 194.693 351.332 193.651L351.332 178.062Z" fill="#303949"/>
<path d="M351.332 178.062C351.332 177.484 350.848 177.025 350.272 177.054L327.079 178.246C326.144 178.294 325.543 179.258 325.912 180.118L332.834 196.271C333.064 196.807 333.613 197.134 334.194 197.08L349.501 195.659C350.539 195.563 351.332 194.693 351.332 193.651L351.332 178.062Z" fill="url(#paint49_linear_3962_257021)" fill-opacity="0.2"/>
<path d="M351.332 178.062C351.332 177.484 350.848 177.025 350.272 177.054L327.079 178.246C326.144 178.294 325.543 179.258 325.912 180.118L332.834 196.271C333.064 196.807 333.613 197.134 334.194 197.08L349.501 195.659C350.539 195.563 351.332 194.693 351.332 193.651L351.332 178.062Z" stroke="#303349" stroke-width="2"/>
<path d="M303.381 197.763L318.533 208.342C318.692 208.453 318.926 208.418 319.047 208.241C320.022 206.823 321.785 204.348 323.335 202.683C324.92 200.98 327.119 199.002 328.449 197.838C328.81 197.522 328.913 197.01 328.711 196.592L321.478 181.634C321.478 181.633 321.478 181.633 321.477 181.633C319.548 182.897 315.186 185.817 312.399 188.161C309.218 190.837 305.176 195.213 303.319 197.274C303.192 197.416 303.211 197.644 303.381 197.763Z" fill="#303949"/>
<path d="M303.381 197.763L318.533 208.342C318.692 208.453 318.926 208.418 319.047 208.241C320.022 206.823 321.785 204.348 323.335 202.683C324.92 200.98 327.119 199.002 328.449 197.838C328.81 197.522 328.913 197.01 328.711 196.592L321.478 181.634C321.478 181.633 321.478 181.633 321.477 181.633C319.548 182.897 315.186 185.817 312.399 188.161C309.218 190.837 305.176 195.213 303.319 197.274C303.192 197.416 303.211 197.644 303.381 197.763Z" fill="url(#paint50_linear_3962_257021)" fill-opacity="0.2"/>
<path d="M303.381 197.763L318.533 208.342C318.692 208.453 318.926 208.418 319.047 208.241C320.022 206.823 321.785 204.348 323.335 202.683C324.92 200.98 327.119 199.002 328.449 197.838C328.81 197.522 328.913 197.01 328.711 196.592L321.478 181.634C321.478 181.633 321.478 181.633 321.477 181.633C319.548 182.897 315.186 185.817 312.399 188.161C309.218 190.837 305.176 195.213 303.319 197.274C303.192 197.416 303.211 197.644 303.381 197.763Z" stroke="#303349" stroke-width="2"/>
<path d="M285.571 185.232L300.577 195.035C300.736 195.139 300.964 195.1 301.082 194.928C302.052 193.514 303.832 191.012 305.394 189.334C306.866 187.754 308.865 185.937 310.205 184.756C310.633 184.378 310.686 183.738 310.342 183.308L299.046 169.199C297.543 170.287 294.241 172.79 292.012 175.263C289.542 178.003 286.706 182.67 285.46 184.804C285.379 184.942 285.415 185.13 285.571 185.232Z" fill="#303949"/>
<path d="M285.571 185.232L300.577 195.035C300.736 195.139 300.964 195.1 301.082 194.928C302.052 193.514 303.832 191.012 305.394 189.334C306.866 187.754 308.865 185.937 310.205 184.756C310.633 184.378 310.686 183.738 310.342 183.308L299.046 169.199C297.543 170.287 294.241 172.79 292.012 175.263C289.542 178.003 286.706 182.67 285.46 184.804C285.379 184.942 285.415 185.13 285.571 185.232Z" fill="url(#paint51_linear_3962_257021)" fill-opacity="0.2"/>
<path d="M285.571 185.232L300.577 195.035C300.736 195.139 300.964 195.1 301.082 194.928C302.052 193.514 303.832 191.012 305.394 189.334C306.866 187.754 308.865 185.937 310.205 184.756C310.633 184.378 310.686 183.738 310.342 183.308L299.046 169.199C297.543 170.287 294.241 172.79 292.012 175.263C289.542 178.003 286.706 182.67 285.46 184.804C285.379 184.942 285.415 185.13 285.571 185.232Z" stroke="#303349" stroke-width="2"/>
</g>
<path d="M273.116 192.086L282.792 158.423C283.707 155.247 284.174 151.957 284.178 148.651V78.7969C284.181 76.2486 285.195 73.8056 286.997 72.0037C288.799 70.2017 291.243 69.1878 293.791 69.1841H302.309C302.662 69.1844 303.001 69.0477 303.255 68.8029L312.373 59.9594C313.527 58.8431 315.071 58.2214 316.677 58.2267H342.668C343.577 58.2243 344.459 57.9222 345.177 57.3673L352.836 51.4381C354.042 50.5079 355.521 50.0023 357.043 50H377.112C378.752 49.9997 380.337 50.5861 381.582 51.653L388.101 57.2356C388.844 57.8736 389.79 58.2241 390.77 58.2232H402.206C403.795 58.2248 405.335 58.7757 406.565 59.7826L413.129 65.1747C413.863 65.7758 414.783 66.1051 415.732 66.1069H443.93C446.751 66.1096 449.456 67.2312 451.451 69.2257C453.447 71.2201 454.569 73.9244 454.573 76.7454L454.642 136.034L461.417 158.001C463.369 164.313 464.116 170.936 463.621 177.524L455.387 288.107C455.145 291.183 453.756 294.056 451.494 296.155C449.232 298.254 446.264 299.426 443.178 299.438H327.5C324.753 299.445 322.084 298.525 319.924 296.827C317.765 295.129 316.241 292.753 315.599 290.082L304.354 243.612C302.832 237.323 299.153 231.767 293.957 227.91L282.355 219.32C278.235 216.252 275.145 212.005 273.495 207.141C271.845 202.277 271.713 197.026 273.116 192.086Z" stroke="#3F425A" stroke-width="2" stroke-miterlimit="10" stroke-linecap="round"/>
<path d="M249.806 192.086L240.13 158.423C239.215 155.247 238.748 151.957 238.744 148.651V78.7969C238.74 76.2486 237.726 73.8056 235.924 72.0037C234.122 70.2017 231.679 69.1878 229.131 69.1841H220.613C220.26 69.1844 219.921 69.0477 219.667 68.8029L210.549 59.9594C209.395 58.8431 207.85 58.2214 206.245 58.2267H180.253C179.345 58.2243 178.463 57.9222 177.744 57.3673L170.086 51.4381C168.88 50.5079 167.401 50.0023 165.879 50H145.81C144.17 49.9997 142.584 50.5861 141.339 51.653L134.821 57.2356C134.078 57.8736 133.131 58.2241 132.152 58.2232H120.716C119.127 58.2248 117.587 58.7757 116.357 59.7826L109.793 65.1747C109.059 65.7758 108.139 66.1051 107.19 66.1069H78.9916C76.1705 66.1096 73.4656 67.2312 71.4705 69.2257C69.4753 71.2201 68.3527 73.9244 68.3491 76.7454L68.2797 136.034L61.5047 158.001C59.5531 164.313 58.8054 170.936 59.3006 177.524L67.5347 288.107C67.7764 291.183 69.1661 294.056 71.4278 296.155C73.6895 298.254 76.6578 299.426 79.7436 299.438H195.422C198.169 299.445 200.838 298.525 202.997 296.827C205.157 295.129 206.681 292.753 207.322 290.082L218.568 243.612C220.09 237.323 223.769 231.767 228.965 227.91L240.567 219.32C244.687 216.252 247.777 212.005 249.427 207.141C251.077 202.277 251.209 197.026 249.806 192.086Z" stroke="#3F425A" stroke-width="2" stroke-miterlimit="10" stroke-linecap="round"/>
</g>
<defs>
<linearGradient id="paint0_linear_3962_257021" x1="76.1523" y1="96.5039" x2="95.6562" y2="96.5039" gradientUnits="userSpaceOnUse">
<stop offset="0.211538" stop-color="#32EEEE" stop-opacity="0.5"/>
<stop offset="1" stop-color="#32EEEE"/>
</linearGradient>
<linearGradient id="paint1_linear_3962_257021" x1="76.1523" y1="118.008" x2="95.6562" y2="118.008" gradientUnits="userSpaceOnUse">
<stop offset="0.211538" stop-color="white"/>
<stop offset="1" stop-color="#7B869E"/>
</linearGradient>
<linearGradient id="paint2_linear_3962_257021" x1="76.1523" y1="139.512" x2="95.6562" y2="139.512" gradientUnits="userSpaceOnUse">
<stop offset="0.211538" stop-color="white"/>
<stop offset="1" stop-color="#7B869E"/>
</linearGradient>
<linearGradient id="paint3_linear_3962_257021" x1="76.1523" y1="161.016" x2="95.6562" y2="161.016" gradientUnits="userSpaceOnUse">
<stop offset="0.211538" stop-color="white"/>
<stop offset="1" stop-color="#7B869E"/>
</linearGradient>
<linearGradient id="paint4_linear_3962_257021" x1="97.6562" y1="96.5039" x2="117.16" y2="96.5039" gradientUnits="userSpaceOnUse">
<stop offset="0.211538" stop-color="white"/>
<stop offset="1" stop-color="#7B869E"/>
</linearGradient>
<linearGradient id="paint5_linear_3962_257021" x1="97.6562" y1="118.008" x2="117.16" y2="118.008" gradientUnits="userSpaceOnUse">
<stop offset="0.211538" stop-color="white"/>
<stop offset="1" stop-color="#7B869E"/>
</linearGradient>
<linearGradient id="paint6_linear_3962_257021" x1="97.6562" y1="139.512" x2="117.16" y2="139.512" gradientUnits="userSpaceOnUse">
<stop offset="0.211538" stop-color="white"/>
<stop offset="1" stop-color="#7B869E"/>
</linearGradient>
<linearGradient id="paint7_linear_3962_257021" x1="97.6562" y1="161.016" x2="117.16" y2="161.016" gradientUnits="userSpaceOnUse">
<stop offset="0.211538" stop-color="white"/>
<stop offset="1" stop-color="#7B869E"/>
</linearGradient>
<linearGradient id="paint8_linear_3962_257021" x1="163.152" y1="88.5039" x2="182.656" y2="88.5039" gradientUnits="userSpaceOnUse">
<stop offset="0.211538" stop-color="white"/>
<stop offset="1" stop-color="#7B869E"/>
</linearGradient>
<linearGradient id="paint9_linear_3962_257021" x1="163.152" y1="110.008" x2="182.656" y2="110.008" gradientUnits="userSpaceOnUse">
<stop offset="0.211538" stop-color="white"/>
<stop offset="1" stop-color="#7B869E"/>
</linearGradient>
<linearGradient id="paint10_linear_3962_257021" x1="163.152" y1="131.512" x2="182.656" y2="131.512" gradientUnits="userSpaceOnUse">
<stop offset="0.211538" stop-color="white"/>
<stop offset="1" stop-color="#7B869E"/>
</linearGradient>
<linearGradient id="paint11_linear_3962_257021" x1="163.152" y1="153.016" x2="182.656" y2="153.016" gradientUnits="userSpaceOnUse">
<stop offset="0.211538" stop-color="white"/>
<stop offset="1" stop-color="#7B869E"/>
</linearGradient>
<linearGradient id="paint12_linear_3962_257021" x1="184.656" y1="88.5039" x2="204.16" y2="88.5039" gradientUnits="userSpaceOnUse">
<stop offset="0.211538" stop-color="white"/>
<stop offset="1" stop-color="#7B869E"/>
</linearGradient>
<linearGradient id="paint13_linear_3962_257021" x1="184.656" y1="110.008" x2="204.16" y2="110.008" gradientUnits="userSpaceOnUse">
<stop offset="0.211538" stop-color="white"/>
<stop offset="1" stop-color="#7B869E"/>
</linearGradient>
<linearGradient id="paint14_linear_3962_257021" x1="184.656" y1="131.512" x2="204.16" y2="131.512" gradientUnits="userSpaceOnUse">
<stop offset="0.211538" stop-color="white"/>
<stop offset="1" stop-color="#7B869E"/>
</linearGradient>
<linearGradient id="paint15_linear_3962_257021" x1="184.656" y1="153.016" x2="204.16" y2="153.016" gradientUnits="userSpaceOnUse">
<stop offset="0.211538" stop-color="white"/>
<stop offset="1" stop-color="#7B869E"/>
</linearGradient>
<linearGradient id="paint16_linear_3962_257021" x1="119.16" y1="88.5039" x2="138.664" y2="88.5039" gradientUnits="userSpaceOnUse">
<stop offset="0.211538" stop-color="white"/>
<stop offset="1" stop-color="#7B869E"/>
</linearGradient>
<linearGradient id="paint17_linear_3962_257021" x1="119.16" y1="110.008" x2="138.664" y2="110.008" gradientUnits="userSpaceOnUse">
<stop offset="0.211538" stop-color="white"/>
<stop offset="1" stop-color="#7B869E"/>
</linearGradient>
<linearGradient id="paint18_linear_3962_257021" x1="119.16" y1="131.512" x2="138.664" y2="131.512" gradientUnits="userSpaceOnUse">
<stop offset="0.211538" stop-color="white"/>
<stop offset="1" stop-color="#7B869E"/>
</linearGradient>
<linearGradient id="paint19_linear_3962_257021" x1="119.16" y1="153.016" x2="138.664" y2="153.016" gradientUnits="userSpaceOnUse">
<stop offset="0.211538" stop-color="white"/>
<stop offset="1" stop-color="#7B869E"/>
</linearGradient>
<linearGradient id="paint20_linear_3962_257021" x1="141.152" y1="82.5039" x2="160.656" y2="82.5039" gradientUnits="userSpaceOnUse">
<stop offset="0.211538" stop-color="white"/>
<stop offset="1" stop-color="#7B869E"/>
</linearGradient>
<linearGradient id="paint21_linear_3962_257021" x1="141.152" y1="104.008" x2="160.656" y2="104.008" gradientUnits="userSpaceOnUse">
<stop offset="0.211538" stop-color="white"/>
<stop offset="1" stop-color="#7B869E"/>
</linearGradient>
<linearGradient id="paint22_linear_3962_257021" x1="141.152" y1="125.512" x2="160.656" y2="125.512" gradientUnits="userSpaceOnUse">
<stop offset="0.211538" stop-color="white"/>
<stop offset="1" stop-color="#7B869E"/>
</linearGradient>
<linearGradient id="paint23_linear_3962_257021" x1="141.152" y1="147.016" x2="160.656" y2="147.016" gradientUnits="userSpaceOnUse">
<stop offset="0.211538" stop-color="white"/>
<stop offset="1" stop-color="#7B869E"/>
</linearGradient>
<linearGradient id="paint24_linear_3962_257021" x1="206.152" y1="98.5039" x2="225.656" y2="98.5039" gradientUnits="userSpaceOnUse">
<stop offset="0.211538" stop-color="white"/>
<stop offset="1" stop-color="#7B869E"/>
</linearGradient>
<linearGradient id="paint25_linear_3962_257021" x1="206.152" y1="120.008" x2="225.656" y2="120.008" gradientUnits="userSpaceOnUse">
<stop offset="0.211538" stop-color="white"/>
<stop offset="1" stop-color="#7B869E"/>
</linearGradient>
<linearGradient id="paint26_linear_3962_257021" x1="206.152" y1="141.512" x2="225.656" y2="141.512" gradientUnits="userSpaceOnUse">
<stop offset="0.211538" stop-color="white"/>
<stop offset="1" stop-color="#7B869E"/>
</linearGradient>
<linearGradient id="paint27_linear_3962_257021" x1="172.168" y1="175.056" x2="196.332" y2="175.056" gradientUnits="userSpaceOnUse">
<stop offset="0.211538" stop-color="white"/>
<stop offset="1" stop-color="#7B869E"/>
</linearGradient>
<linearGradient id="paint28_linear_3962_257021" x1="142.254" y1="173.711" x2="169.107" y2="173.711" gradientUnits="userSpaceOnUse">
<stop offset="0.211538" stop-color="white"/>
<stop offset="1" stop-color="#7B869E"/>
</linearGradient>
<linearGradient id="paint29_linear_3962_257021" x1="141.535" y1="195.562" x2="169.101" y2="195.562" gradientUnits="userSpaceOnUse">
<stop offset="0.211538" stop-color="white"/>
<stop offset="1" stop-color="#7B869E"/>
</linearGradient>
<linearGradient id="paint30_linear_3962_257021" x1="204.969" y1="211.762" x2="225.525" y2="229.01" gradientUnits="userSpaceOnUse">
<stop offset="0.211538" stop-color="white"/>
<stop offset="1" stop-color="#7B869E"/>
</linearGradient>
<linearGradient id="paint31_linear_3962_257021" x1="191.893" y1="177.367" x2="214.68" y2="185.661" gradientUnits="userSpaceOnUse">
<stop offset="0.211538" stop-color="white"/>
<stop offset="1" stop-color="#7B869E"/>
</linearGradient>
<linearGradient id="paint32_linear_3962_257021" x1="171.832" y1="197.242" x2="198.013" y2="197.242" gradientUnits="userSpaceOnUse">
<stop offset="0.211538" stop-color="white"/>
<stop offset="1" stop-color="#7B869E"/>
</linearGradient>
<linearGradient id="paint33_linear_3962_257021" x1="187.526" y1="196.28" x2="208.081" y2="213.528" gradientUnits="userSpaceOnUse">
<stop offset="0.211538" stop-color="white"/>
<stop offset="1" stop-color="#7B869E"/>
</linearGradient>
<linearGradient id="paint34_linear_3962_257021" x1="208.725" y1="185.665" x2="226.322" y2="200.431" gradientUnits="userSpaceOnUse">
<stop offset="0.211538" stop-color="white"/>
<stop offset="1" stop-color="#7B869E"/>
</linearGradient>
<linearGradient id="paint35_linear_3962_257021" x1="295.77" y1="96.5039" x2="315.273" y2="96.5039" gradientUnits="userSpaceOnUse">
<stop offset="0.211538" stop-color="white"/>
<stop offset="1" stop-color="#7B869E"/>
</linearGradient>
<linearGradient id="paint36_linear_3962_257021" x1="295.77" y1="118.008" x2="315.273" y2="118.008" gradientUnits="userSpaceOnUse">
<stop offset="0.211538" stop-color="white"/>
<stop offset="1" stop-color="#7B869E"/>
</linearGradient>
<linearGradient id="paint37_linear_3962_257021" x1="295.77" y1="139.512" x2="315.273" y2="139.512" gradientUnits="userSpaceOnUse">
<stop offset="0.211538" stop-color="white"/>
<stop offset="1" stop-color="#7B869E"/>
</linearGradient>
<linearGradient id="paint38_linear_3962_257021" x1="317.262" y1="88.5039" x2="336.766" y2="88.5039" gradientUnits="userSpaceOnUse">
<stop offset="0.211538" stop-color="white"/>
<stop offset="1" stop-color="#7B869E"/>
</linearGradient>
<linearGradient id="paint39_linear_3962_257021" x1="317.262" y1="110.008" x2="336.766" y2="110.008" gradientUnits="userSpaceOnUse">
<stop offset="0.211538" stop-color="white"/>
<stop offset="1" stop-color="#7B869E"/>
</linearGradient>
<linearGradient id="paint40_linear_3962_257021" x1="317.262" y1="131.512" x2="336.766" y2="131.512" gradientUnits="userSpaceOnUse">
<stop offset="0.211538" stop-color="white"/>
<stop offset="1" stop-color="#7B869E"/>
</linearGradient>
<linearGradient id="paint41_linear_3962_257021" x1="317.262" y1="153.016" x2="336.766" y2="153.016" gradientUnits="userSpaceOnUse">
<stop offset="0.211538" stop-color="white"/>
<stop offset="1" stop-color="#7B869E"/>
</linearGradient>
<linearGradient id="paint42_linear_3962_257021" x1="338.77" y1="88.5039" x2="358.273" y2="88.5039" gradientUnits="userSpaceOnUse">
<stop offset="0.211538" stop-color="white"/>
<stop offset="1" stop-color="#7B869E"/>
</linearGradient>
<linearGradient id="paint43_linear_3962_257021" x1="338.77" y1="110.008" x2="358.273" y2="110.008" gradientUnits="userSpaceOnUse">
<stop offset="0.211538" stop-color="white"/>
<stop offset="1" stop-color="#7B869E"/>
</linearGradient>
<linearGradient id="paint44_linear_3962_257021" x1="338.77" y1="131.512" x2="358.273" y2="131.512" gradientUnits="userSpaceOnUse">
<stop offset="0.211538" stop-color="white"/>
<stop offset="1" stop-color="#7B869E"/>
</linearGradient>
<linearGradient id="paint45_linear_3962_257021" x1="338.77" y1="153.016" x2="358.273" y2="153.016" gradientUnits="userSpaceOnUse">
<stop offset="0.211538" stop-color="white"/>
<stop offset="1" stop-color="#7B869E"/>
</linearGradient>
<linearGradient id="paint46_linear_3962_257021" x1="350.754" y1="175.056" x2="326.59" y2="175.056" gradientUnits="userSpaceOnUse">
<stop offset="0.229167" stop-color="#7B869E"/>
<stop offset="1" stop-color="white"/>
</linearGradient>
<linearGradient id="paint47_linear_3962_257021" x1="317.953" y1="211.762" x2="297.397" y2="229.01" gradientUnits="userSpaceOnUse">
<stop offset="0.291667" stop-color="#7B869E"/>
<stop offset="1" stop-color="white"/>
</linearGradient>
<linearGradient id="paint48_linear_3962_257021" x1="331.029" y1="177.367" x2="308.242" y2="185.661" gradientUnits="userSpaceOnUse">
<stop offset="0.291667" stop-color="#7B869E"/>
<stop offset="1" stop-color="white"/>
</linearGradient>
<linearGradient id="paint49_linear_3962_257021" x1="351.332" y1="197.17" x2="325.151" y2="197.17" gradientUnits="userSpaceOnUse">
<stop offset="0.291667" stop-color="#7B869E"/>
<stop offset="1" stop-color="white"/>
</linearGradient>
<linearGradient id="paint50_linear_3962_257021" x1="335.396" y1="196.28" x2="314.841" y2="213.528" gradientUnits="userSpaceOnUse">
<stop offset="0.260417" stop-color="#7B869E"/>
<stop offset="1" stop-color="white"/>
</linearGradient>
<linearGradient id="paint51_linear_3962_257021" x1="314.197" y1="185.665" x2="296.6" y2="200.431" gradientUnits="userSpaceOnUse">
<stop offset="0.21875" stop-color="#7B869E"/>
<stop offset="1" stop-color="white"/>
</linearGradient>
</defs>
</svg>
